<svg width="32" height="32" viewBox="0 0 32 32" fill="none" xmlns="http://www.w3.org/2000/svg">
  <path d="M29.8147 2.18604L18.1347 10.922L20.252 5.96004L29.8147 2.18604Z" fill="#E2761B" stroke="#E2761B" stroke-linecap="round" stroke-linejoin="round"/>
  <path d="M2.17871 2.18604L13.7747 10.998L11.748 5.96004L2.17871 2.18604Z" fill="#E4761B" stroke="#E4761B" stroke-linecap="round" stroke-linejoin="round"/>
  <path d="M25.516 22.3887L22.468 27.1887L29.0307 28.994L30.9107 22.5007L25.516 22.3887Z" fill="#E4761B" stroke="#E4761B" stroke-linecap="round" stroke-linejoin="round"/>
  <path d="M1.09668 22.5007L2.96935 28.994L9.53202 27.1887L6.48402 22.3887L1.09668 22.5007Z" fill="#E4761B" stroke="#E4761B" stroke-linecap="round" stroke-linejoin="round"/>
  <path d="M9.14133 14.3493L7.31067 17.1413L13.8867 17.4213L13.6627 10.256L9.14133 14.3493Z" fill="#E4761B" stroke="#E4761B" stroke-linecap="round" stroke-linejoin="round"/>
  <path d="M22.8521 14.3493L18.2468 10.18L18.1348 17.4213L24.6894 17.1413L22.8521 14.3493Z" fill="#E4761B" stroke="#E4761B" stroke-linecap="round" stroke-linejoin="round"/>
  <path d="M9.53223 27.1887L13.4949 25.2407L10.0669 22.544L9.53223 27.1887Z" fill="#E4761B" stroke="#E4761B" stroke-linecap="round" stroke-linejoin="round"/>
  <path d="M18.498 25.2407L22.468 27.1887L21.926 22.544L18.498 25.2407Z" fill="#E4761B" stroke="#E4761B" stroke-linecap="round" stroke-linejoin="round"/>
  <path d="M22.468 27.1886L18.498 25.2406L18.8153 27.8793L18.778 28.918L22.468 27.1886Z" fill="#D7C1B3" stroke="#D7C1B3" stroke-linecap="round" stroke-linejoin="round"/>
  <path d="M9.53223 27.1886L13.2222 28.918L13.1916 27.8793L13.4949 25.2406L9.53223 27.1886Z" fill="#D7C1B3" stroke="#D7C1B3" stroke-linecap="round" stroke-linejoin="round"/>
  <path d="M13.284 20.9033L10.004 19.9513L12.2213 18.9373L13.284 20.9033Z" fill="#233447" stroke="#233447" stroke-linecap="round" stroke-linejoin="round"/>
  <path d="M18.7092 20.9033L19.7719 18.9373L22.0025 19.9513L18.7092 20.9033Z" fill="#233447" stroke="#233447" stroke-linecap="round" stroke-linejoin="round"/>
  <path d="M9.53199 27.1888L10.0973 22.3888L6.48398 22.5008L9.53199 27.1888Z" fill="#CD6116" stroke="#CD6116" stroke-linecap="round" stroke-linejoin="round"/>
  <path d="M21.896 22.3888L22.468 27.1888L25.516 22.5008L21.896 22.3888Z" fill="#CD6116" stroke="#CD6116" stroke-linecap="round" stroke-linejoin="round"/>
  <path d="M24.6893 17.1413L18.1346 17.4213L18.716 20.9033L19.7786 18.9373L22.0093 19.9513L24.6893 17.1413Z" fill="#CD6116" stroke="#CD6116" stroke-linecap="round" stroke-linejoin="round"/>
  <path d="M10.004 19.9513L12.2213 18.9373L13.284 20.9033L13.8867 17.4213L7.31067 17.1413L10.004 19.9513Z" fill="#CD6116" stroke="#CD6116" stroke-linecap="round" stroke-linejoin="round"/>
  <path d="M7.31055 17.1413L10.0666 22.544L10.0039 19.9513L7.31055 17.1413Z" fill="#E4751F" stroke="#E4751F" stroke-linecap="round" stroke-linejoin="round"/>
  <path d="M22.0095 19.9513L21.9255 22.544L24.6895 17.1413L22.0095 19.9513Z" fill="#E4751F" stroke="#E4751F" stroke-linecap="round" stroke-linejoin="round"/>
  <path d="M13.8867 17.4214L13.284 20.9034L14.0427 24.8054L14.2107 19.6714L13.8867 17.4214Z" fill="#E4751F" stroke="#E4751F" stroke-linecap="round" stroke-linejoin="round"/>
  <path d="M18.1348 17.4214L17.8241 19.6594L17.9575 24.8054L18.7161 20.9034L18.1348 17.4214Z" fill="#E4751F" stroke="#E4751F" stroke-linecap="round" stroke-linejoin="round"/>
  <path d="M18.716 20.9033L17.9573 24.8053L18.498 25.2407L21.926 22.544L22.01 19.9513L18.716 20.9033Z" fill="#F6851B" stroke="#F6851B" stroke-linecap="round" stroke-linejoin="round"/>
  <path d="M10.004 19.9513L10.0667 22.544L13.4947 25.2407L14.0427 24.8053L13.284 20.9033L10.004 19.9513Z" fill="#F6851B" stroke="#F6851B" stroke-linecap="round" stroke-linejoin="round"/>
  <path d="M18.7787 28.918L18.816 27.8793L18.5227 27.6307H13.468L13.1947 27.8793L13.2253 28.918L9.53534 27.1887L10.8547 28.258L13.4307 30.0633H18.56L21.148 28.258L22.468 27.1887L18.7787 28.918Z" fill="#C0AD9E" stroke="#C0AD9E" stroke-linecap="round" stroke-linejoin="round"/>
  <path d="M18.498 25.2407L17.9573 24.8054H14.0427L13.4947 25.2407L13.1913 27.8794L13.468 27.6307H18.5227L18.816 27.8794L18.498 25.2407Z" fill="#161616" stroke="#161616" stroke-linecap="round" stroke-linejoin="round"/>
  <path d="M30.3813 11.4253L31.2 7.36664L29.8147 2.18604L18.498 10.5527L22.852 14.3493L29.0187 16.1173L30.4253 14.5113L29.8333 14.0753L30.8347 13.1607L30.1173 12.6007L31.1187 11.8487L30.3813 11.4253Z" fill="#763D16" stroke="#763D16" stroke-linecap="round" stroke-linejoin="round"/>
  <path d="M0.800049 7.36664L1.61871 11.4253L0.868715 11.8487L1.88271 12.6007L1.16538 13.1607L2.16671 14.0753L1.57471 14.5113L2.96938 16.1173L9.14138 14.3493L13.4947 10.5527L2.17871 2.18604L0.800049 7.36664Z" fill="#763D16" stroke="#763D16" stroke-linecap="round" stroke-linejoin="round"/>
  <path d="M29.0186 16.1174L22.852 14.3494L24.6893 17.1414L21.9253 22.544L25.516 22.5007H30.9106L29.0186 16.1174Z" fill="#F6851B" stroke="#F6851B" stroke-linecap="round" stroke-linejoin="round"/>
  <path d="M9.14133 14.3494L2.96933 16.1174L1.09668 22.5007H6.48402L10.0667 22.544L7.31067 17.1414L9.14133 14.3494Z" fill="#F6851B" stroke="#F6851B" stroke-linecap="round" stroke-linejoin="round"/>
  <path d="M18.1347 17.4214L18.498 10.5527L20.2587 5.96004H11.748L13.4947 10.5527L13.8867 17.4214L14.032 19.684L14.0427 24.8054H17.9573L17.9787 19.684L18.1347 17.4214Z" fill="#F6851B" stroke="#F6851B" stroke-linecap="round" stroke-linejoin="round"/>
</svg>